<svg width="28" height="28" viewBox="0 0 28 28" fill="none" xmlns="http://www.w3.org/2000/svg">
<path d="M17.7887 18.795L19.7487 16.835C20.0127 16.5743 20.3467 16.3958 20.7101 16.3213C21.0736 16.2467 21.4509 16.2793 21.7962 16.415L24.1849 17.3688C24.5339 17.5104 24.8331 17.7522 25.0449 18.0636C25.2566 18.375 25.3715 18.7422 25.3749 19.1188V23.4938C25.3729 23.7499 25.319 24.0031 25.2166 24.2379C25.1142 24.4727 24.9653 24.6844 24.7789 24.8601C24.5925 25.0359 24.3725 25.1721 24.1321 25.2606C23.8916 25.3491 23.6358 25.388 23.3799 25.375C6.64118 24.3337 3.26368 10.1588 2.62493 4.73375C2.59528 4.46735 2.62237 4.19768 2.70443 3.9425C2.78648 3.68731 2.92163 3.45239 3.10099 3.2532C3.28035 3.054 3.49986 2.89503 3.74507 2.78676C3.99028 2.67848 4.25564 2.62336 4.52368 2.625H8.74993C9.12707 2.62612 9.49524 2.74004 9.8071 2.9521C10.119 3.16417 10.3603 3.46469 10.4999 3.815L11.4537 6.20375C11.5939 6.54769 11.6297 6.92531 11.5565 7.28946C11.4834 7.65361 11.3046 7.98814 11.0424 8.25125L9.08243 10.2113C9.08243 10.2113 10.2112 17.85 17.7887 18.795Z" fill="#4587A7"/>
</svg>
